<svg preserveAspectRatio="xMidYMid meet" data-bbox="30.403 30.105 139.193 139.791" viewBox="30.403 30.105 139.193 139.791" height="200" width="200" xmlns="http://www.w3.org/2000/svg" data-type="color" role="img">
    <g>
        <path fill="rgb(4, 44, 75)" d="M47.175 135.289l-16.772 4.209a26.098 26.098 0 0 1 7.346-14.35c7.776-7.776 19.242-9.637 28.789-5.582l63.69-63.69c-1.95-6.826-.244-14.48 5.127-19.851 7.898-7.898 20.696-7.89 28.586 0a20.014 20.014 0 0 1 2.73 3.397l-13.505 3.397c-7.849 1.966-4.339 15.943 3.502 13.968l12.928-3.242a20.087 20.087 0 0 1-5.664 11.059c-5.371 5.371-13.017 7.086-19.843 5.135l-63.69 63.69c4.055 9.548 2.194 21.013-5.582 28.789-10.238 10.238-26.839 10.23-37.07 0a25.869 25.869 0 0 1-3.543-4.404l17.511-4.396c10.183-2.56 5.633-20.681-4.54-18.129z"  clip-rule="evenodd" fill-rule="evenodd" data-color="1"></path>
        <path d="M77.597 118.014l51.192-51.192c4.396-4.396 8.751-.041 4.355 4.355l-51.192 51.192c-4.387 4.388-8.743.033-4.355-4.355z" clip-rule="evenodd" fill-rule="evenodd" opacity=".25"></path>
        <path d="M74.814 162.22c-10.234 10.234-26.834 10.233-37.067 0a26.226 26.226 0 0 1-3.545-4.404l17.52-4.399c10.179-2.561 5.628-20.681-4.552-18.126l-16.762 4.208a26.081 26.081 0 0 1 7.339-14.347c7.782-7.782 19.245-9.643 28.791-5.588L98.44 87.662l13.866 13.866-31.9 31.9c4.054 9.547 2.191 21.009-5.592 28.792z" clip-rule="evenodd" fill-rule="evenodd" opacity=".15"></path>
    </g>
</svg>